<svg width="24" height="24" viewBox="0 0 24 24" fill="none" xmlns="http://www.w3.org/2000/svg">
<g clip-path="url(#clip0_318:2)">
<path d="M19.6281 5.88926H16.5078L18.1254 8.69033L19.6281 5.88926Z" fill="#F7C340"/>
<path d="M21.3873 17.1348L19.2757 13.4763L12.6256 2L1 22.1339H7.2258C8.05774 22.1328 8.87501 21.9147 9.59699 21.5014C10.319 21.088 10.9207 20.4936 11.3429 19.7768L14.5251 14.2247L12.7572 11.1624L8.91509 17.8508C8.6971 18.2219 8.38617 18.5297 8.01296 18.7439C7.63974 18.9582 7.21713 19.0715 6.78679 19.0726H6.31339L12.6266 8.13545L20.7087 22.1339H23V19.9054L21.3952 17.1348H21.3873Z" fill="black"/>
</g>
<defs>
<clipPath id="clip0_318:2">
<rect width="22" height="20.1369" fill="white" transform="translate(1 2)"/>
</clipPath>
</defs>
</svg>
